<svg width="26" height="26" viewBox="0 0 26 26" xmlns="http://www.w3.org/2000/svg">
<path d="M25.6444 1.4325C25.613 1.28638 25.5401 1.15243 25.4344 1.04675C25.3288 0.941075 25.1948 0.868167 25.0487 0.836792C23.4764 0.499878 22.2464 0.499878 21.0209 0.499878C15.9818 0.499878 12.9593 3.19519 10.704 6.74988H5.61607C5.18156 6.75025 4.75569 6.8714 4.38605 7.09981C4.0164 7.32822 3.71753 7.65489 3.52281 8.04334L1.10973 12.8676C1.02061 13.0463 0.978644 13.2448 0.987807 13.4443C0.996969 13.6438 1.05696 13.8376 1.16208 14.0074C1.2672 14.1772 1.41397 14.3173 1.58845 14.4144C1.76294 14.5115 1.95935 14.5625 2.15904 14.5624H7.22594L6.12877 15.6595C5.83582 15.9526 5.67124 16.3499 5.67124 16.7643C5.67124 17.1786 5.83582 17.576 6.12877 17.869L8.61412 20.3549C8.75922 20.5 8.93148 20.6151 9.12108 20.6937C9.31067 20.7722 9.51388 20.8126 9.7191 20.8126C9.92432 20.8126 10.1275 20.7722 10.3171 20.6937C10.5067 20.6151 10.679 20.5 10.8241 20.3549L11.9213 19.2577V24.328C11.9212 24.5276 11.9721 24.724 12.0692 24.8984C12.1663 25.0728 12.3064 25.2195 12.4761 25.3246C12.6458 25.4298 12.8396 25.4898 13.039 25.499C13.2384 25.5082 13.4369 25.4663 13.6156 25.3773L18.4349 22.9657C18.824 22.7713 19.1512 22.4724 19.3798 22.1023C19.6083 21.7323 19.7292 21.3059 19.7289 20.871V15.7728C23.2733 13.5121 25.9789 10.4799 25.9789 5.4657C25.9837 4.23523 25.9837 3.00476 25.6444 1.4325ZM19.7337 8.703C19.3475 8.703 18.9698 8.58845 18.6487 8.37384C18.3275 8.15923 18.0771 7.85419 17.9293 7.49731C17.7815 7.14042 17.7428 6.74771 17.8182 6.36884C17.8935 5.98997 18.0795 5.64196 18.3527 5.36881C18.6258 5.09566 18.9738 4.90964 19.3527 4.83428C19.7316 4.75892 20.1243 4.7976 20.4812 4.94543C20.8381 5.09325 21.1431 5.34359 21.3577 5.66478C21.5723 5.98597 21.6869 6.36359 21.6869 6.74988C21.6869 7.26788 21.4811 7.76466 21.1148 8.13095C20.7485 8.49723 20.2518 8.703 19.7337 8.703Z" fill="#FFE605"/>
</svg>
