<svg width="19" height="26" viewBox="0 0 19 26" fill="none" xmlns="http://www.w3.org/2000/svg">
<path d="M14.395 21.5107C12.9741 23.0732 11.1577 23.8838 9.03858 23.8838C6.13819 23.8838 3.84815 22.292 2.74463 19.5723C1.90967 17.4531 2.93018 16.2373 3.75049 16.2373C4.30713 16.2373 6.40186 19.1816 6.40186 19.8066C6.40186 20.0459 6.02588 20.2119 5.83057 20.2119C5.04444 20.2119 4.73682 19.4551 3.33545 17.7021C1.88526 19.1523 4.33643 21.9453 6.18213 21.9453C7.45655 21.9453 8.28663 20.7637 8.0376 19.8945C8.21827 19.8945 8.44288 19.9092 8.60889 19.8652C8.6626 21.1885 9.05323 22.7656 10.645 22.8779C10.645 22.834 10.7427 22.5312 10.7427 22.5166C10.7427 21.667 10.2251 20.9248 10.2251 20.0605C10.2251 18.6787 11.2847 17.3408 12.3589 16.5596C12.7495 16.2666 13.2232 16.0859 13.6821 15.9199C14.1558 15.7393 14.6587 15.5293 15.02 15.168C14.9663 14.6211 14.7417 14.1377 14.1948 14.1377C12.8423 14.1377 8.30616 14.333 8.30616 12.1992C8.30616 11.8721 8.31104 11.5596 9.15577 11.5596C10.7329 11.5596 14.7368 11.9502 15.9087 12.9805C16.7925 13.7666 17.0952 18.5078 14.395 21.5107Z" fill="#FFE605"/>
<path d="M13.7798 5.77344C13.9751 5.17285 14.8101 2.63379 15.5913 2.63379C16.0112 2.63379 16.1235 3.06836 16.1235 3.41504C16.1235 4.34766 14.2388 9.49902 13.8237 10.6416L12.1636 10.3486L13.7798 5.77344Z" fill="#FFE605"/>
<path d="M5.50831 2.8584C5.50831 2.27734 6.21631 0.626953 7.76905 5.1582L9.4585 10.0557C8.69678 9.99219 8.10596 9.90918 7.72999 10.124C7.19776 8.71777 5.50831 4.2793 5.50831 2.8584Z" fill="#FFE605"/>
<path fill-rule="evenodd" clip-rule="evenodd" d="M15.5083 11.0176C16.0796 9.42578 17.7251 4.82129 17.7251 3.34668C17.7251 2.04785 16.9585 0.958984 15.5913 0.958984C13.4136 0.958984 11.4605 7.38965 10.8501 8.92285C10.3765 7.53125 8.15967 0.5 6.20655 0.5C4.68799 0.5 3.9751 1.61816 3.9751 3.02441C3.9751 4.74805 5.64502 9.21582 6.25049 10.9346C5.94288 10.8223 5.61085 10.7246 5.27393 10.7246C4.13135 10.7246 2.91553 12.1455 2.91553 13.293C2.91553 13.7275 3.15479 14.3379 3.30616 14.7432C1.5044 15.2314 0.811041 16.4326 0.811041 18.2441C0.806158 21.7695 4.146 25.5 8.84327 25.5C14.605 25.5 18.189 21.1738 18.189 15.5928C18.189 13.4883 17.8521 11.5889 15.5083 11.0176ZM15.5913 2.63379C14.8101 2.63379 13.9751 5.17285 13.7798 5.77344L12.1636 10.3486L13.8237 10.6416C14.2388 9.49902 16.1235 4.34766 16.1235 3.41504C16.1235 3.06836 16.0112 2.63379 15.5913 2.63379ZM7.76905 5.1582C6.21631 0.626953 5.50831 2.27734 5.50831 2.8584C5.50831 4.2793 7.19776 8.71777 7.72999 10.124C8.10596 9.90918 8.69678 9.99219 9.4585 10.0557L7.76905 5.1582ZM8.67237 17.6582C8.67237 17.0332 6.82667 12.4141 5.396 12.4141C5.02002 12.4141 4.40479 13.0684 4.39991 13.4443C4.39991 14.46 7.13428 18.2148 8.15479 18.2148C8.43311 18.2148 8.67237 17.9072 8.67237 17.6582ZM9.03858 23.8838C11.1577 23.8838 12.9741 23.0732 14.395 21.5107C17.0952 18.5078 16.7925 13.7666 15.9087 12.9805C14.7368 11.9502 10.7329 11.5596 9.15577 11.5596C8.31104 11.5596 8.30616 11.8721 8.30616 12.1992C8.30616 14.333 12.8423 14.1377 14.1948 14.1377C14.7417 14.1377 14.9663 14.6211 15.02 15.168C14.6587 15.5293 14.1558 15.7393 13.6821 15.9199C13.2232 16.0859 12.7495 16.2666 12.3589 16.5596C11.2847 17.3408 10.2251 18.6787 10.2251 20.0605C10.2251 20.9248 10.7427 21.667 10.7427 22.5166C10.7427 22.5312 10.645 22.834 10.645 22.8779C9.05323 22.7656 8.6626 21.1885 8.60889 19.8652C8.44288 19.9092 8.21827 19.8945 8.0376 19.8945C8.28663 20.7637 7.45655 21.9453 6.18213 21.9453C4.33643 21.9453 1.88526 19.1523 3.33545 17.7021C4.73682 19.4551 5.04444 20.2119 5.83057 20.2119C6.02588 20.2119 6.40186 20.0459 6.40186 19.8066C6.40186 19.1816 4.30713 16.2373 3.75049 16.2373C2.93018 16.2373 1.90967 17.4531 2.74463 19.5723C3.84815 22.292 6.13819 23.8838 9.03858 23.8838ZM11.0308 15.6514C10.5425 15.5537 10.0542 15.5098 9.58057 15.3584C9.73682 15.7637 9.90284 16.1689 10.0396 16.584C10.3472 16.2373 10.6694 15.915 11.0308 15.6514Z" fill="#FFE605"/>
<path d="M5.396 12.4141C6.82667 12.4141 8.67237 17.0332 8.67237 17.6582C8.67237 17.9072 8.43311 18.2148 8.15479 18.2148C7.13428 18.2148 4.39991 14.46 4.39991 13.4443C4.40479 13.0684 5.02002 12.4141 5.396 12.4141Z" fill="#FFE605"/>
</svg>
